<svg xmlns="http://www.w3.org/2000/svg" viewBox="0 0 356.74 29.54"><defs><style>.cls-1{fill:#fff;}</style></defs><title>Asset 83</title><g id="Layer_2" data-name="Layer 2"><g id="Layer_1-2" data-name="Layer 1"><path class="cls-1" d="M25.77,3.22H4.91A4.91,4.91,0,0,0,0,8.13V29.54H5.34l0-8.87a2.46,2.46,0,0,1,2.44-2.44H22.85a2.44,2.44,0,0,1,2.42,2.44l0,8.87h5.38V8.13A4.91,4.91,0,0,0,25.77,3.22Zm-.47,7.27,0,1.29a1.79,1.79,0,0,1-1.79,1.79H7.11a1.79,1.79,0,0,1-1.79-1.79l0-1.29A2.42,2.42,0,0,1,7.76,8.07H22.87A2.42,2.42,0,0,1,25.29,10.49Z"/><path class="cls-1" d="M40.93,21.67V10.49a2.42,2.42,0,0,1,2.42-2.42h21.2V3.22H39.65a4.91,4.91,0,0,0-4.91,4.91v16.5a4.91,4.91,0,0,0,4.91,4.91H65.42V24.09H43.36A2.42,2.42,0,0,1,40.93,21.67Z"/><path class="cls-1" d="M284.13,21.67V10.49a2.42,2.42,0,0,1,2.42-2.42h21.2V3.22h-24.9a4.91,4.91,0,0,0-4.91,4.91v16.5a4.91,4.91,0,0,0,4.91,4.91h25.77V24.09H286.55A2.42,2.42,0,0,1,284.13,21.67Z"/><path class="cls-1" d="M69.49,8.2V29.54h6.19v-19A2.42,2.42,0,0,1,78.1,8.07h22.05V3.22H74.47A5,5,0,0,0,69.49,8.2Z"/><path class="cls-1" d="M234.22,3.22H208.45V29.54h6.19v-8.6a2.42,2.42,0,0,1,2.42-2.42h17.15a4.91,4.91,0,0,0,4.91-4.91V8.13A4.91,4.91,0,0,0,234.22,3.22Zm-2.87,10.34H216.43a1.79,1.79,0,0,1-1.79-1.79V9.86a1.79,1.79,0,0,1,1.79-1.79h14.91a2.42,2.42,0,0,1,2.42,2.42v.65A2.42,2.42,0,0,1,231.34,13.56Z"/><path class="cls-1" d="M164.73,13.63H147.15a2.42,2.42,0,0,1-2.42-2.42v-.72a2.42,2.42,0,0,1,2.42-2.42h20.67V3.22H143.88A4.91,4.91,0,0,0,139,8.13v5.95A4.91,4.91,0,0,0,143.88,19h18a2.42,2.42,0,0,1,2.42,2.42v.75a2.42,2.42,0,0,1-2.42,2.42H139.74v5h25a4.91,4.91,0,0,0,4.91-4.91V18.54A4.91,4.91,0,0,0,164.73,13.63Z"/><path class="cls-1" d="M199.47,13.63H181.89a2.42,2.42,0,0,1-2.42-2.42v-.72a2.42,2.42,0,0,1,2.42-2.42h20.67V3.22H178.62a4.91,4.91,0,0,0-4.91,4.91v5.95A4.91,4.91,0,0,0,178.62,19h18A2.42,2.42,0,0,1,199,21.41v.75a2.42,2.42,0,0,1-2.42,2.42H174.48v5h25a4.91,4.91,0,0,0,4.91-4.91V18.54A4.91,4.91,0,0,0,199.47,13.63Z"/><path class="cls-1" d="M244.81,3.22V8.07h21.27a2.42,2.42,0,0,1,2.42,2.42v.64a2.42,2.42,0,0,1-2.42,2.42h-18a4.91,4.91,0,0,0-4.91,4.91v6.16a4.91,4.91,0,0,0,4.91,4.91h25.77V8.13A4.91,4.91,0,0,0,269,3.22Zm23.69,16.66v2.91a1.79,1.79,0,0,1-1.79,1.79H251a2.42,2.42,0,0,1-2.42-2.42V20.51A2.42,2.42,0,0,1,251,18.09h15.76A1.79,1.79,0,0,1,268.51,19.88Z"/><path class="cls-1" d="M343.37,24.6H320.62a1.77,1.77,0,0,1-1.77-1.77V18.08h22.06a2.42,2.42,0,0,0,2.42-2.42V8.13a4.91,4.91,0,0,0-4.91-4.91H317.57a4.91,4.91,0,0,0-4.91,4.91v16.5a4.91,4.91,0,0,0,4.91,4.91h25.79Zm-24.51-11V10.49a2.42,2.42,0,0,1,2.42-2.42h14.27A2.42,2.42,0,0,1,338,10.49v1.3a1.79,1.79,0,0,1-1.79,1.79Z"/><path class="cls-1" d="M130,3.22H109.14a4.91,4.91,0,0,0-4.91,4.91v16.5a4.91,4.91,0,0,0,4.91,4.91H130a4.91,4.91,0,0,0,4.91-4.91V8.13A4.91,4.91,0,0,0,130,3.22Zm-1.32,7.28V22.18a2.42,2.42,0,0,1-2.42,2.42H112.88a2.42,2.42,0,0,1-2.42-2.42V10.5a2.42,2.42,0,0,1,2.42-2.42h13.37A2.42,2.42,0,0,1,128.67,10.5Z"/><path class="cls-1" d="M347.86,4.43a4.49,4.49,0,0,1,.34-1.77A4.24,4.24,0,0,1,350.55.33a4.74,4.74,0,0,1,3.5,0,4.24,4.24,0,0,1,2.35,2.32,4.49,4.49,0,0,1,.34,1.77,4.49,4.49,0,0,1-.34,1.77A4.24,4.24,0,0,1,354,8.53a4.74,4.74,0,0,1-3.5,0A4.24,4.24,0,0,1,348.2,6.2,4.49,4.49,0,0,1,347.86,4.43Zm.81,0a4.09,4.09,0,0,0,.26,1.46,3.43,3.43,0,0,0,1.88,2,4,4,0,0,0,3,0,3.43,3.43,0,0,0,1.88-2,4.09,4.09,0,0,0,.26-1.46A4.09,4.09,0,0,0,355.67,3a3.43,3.43,0,0,0-1.88-2,4,4,0,0,0-3,0,3.43,3.43,0,0,0-1.88,2A4.09,4.09,0,0,0,348.66,4.43Zm6,2.51h-.72L352.62,5h-1.46V6.94h-.71V1.86h2.2a1.69,1.69,0,0,1,1.44.81,1.53,1.53,0,0,1,.17.72,1.63,1.63,0,0,1-.42,1,3.86,3.86,0,0,1-.59.42Zm-3.51-4.36V4.22h1.22a1.31,1.31,0,0,0,.76-.17.69.69,0,0,0,.37-.66.73.73,0,0,0-.28-.62.71.71,0,0,0-.59-.18Z"/></g></g></svg>