<svg xmlns="http://www.w3.org/2000/svg" xmlns:xlink="http://www.w3.org/1999/xlink" viewBox="0 0 298.18 229.51"><defs><style>.cls-1{fill:none;}.cls-2{clip-path:url(#clip-path);}.cls-3{fill:#3a4063;}.cls-4{fill:#394063;}</style><clipPath id="clip-path" transform="translate(-14.18 -77.85)"><rect class="cls-1" width="360" height="360" transform="translate(360 360) rotate(180)"/></clipPath></defs><title>Asset 83</title><g id="Layer_2" data-name="Layer 2"><g id="Layer_2-2" data-name="Layer 2"><g class="cls-2"><path class="cls-3" d="M296.17,216.2a5.44,5.44,0,0,1-7.22-.42c-2-1.95-1.44-4.93.61-6.59a4.76,4.76,0,0,1,6.57.39,4.6,4.6,0,0,1,0,6.62c-1.13,1.11-2.87-.63-1.74-1.74,2-2-.91-5.05-3.14-3.52-1,.68-1.59,2-.71,3a3,3,0,0,0,3.85.54C295.65,213.48,297.4,215.21,296.17,216.2Z" transform="translate(-14.18 -77.85)"/><path class="cls-3" d="M248.27,303.45c-16.2,0,5,0-11.23,0a1.23,1.23,0,0,1,0-2.46c16.2,0-5,0,11.23,0a1.23,1.23,0,0,1,0,2.46Z" transform="translate(-14.18 -77.85)"/><path class="cls-3" d="M161,132.32c-16.2,0,5,0-11.23,0a1.23,1.23,0,0,1,0-2.46c16.2,0-5,0,11.23,0a1.23,1.23,0,0,1,0,2.46Z" transform="translate(-14.18 -77.85)"/><path class="cls-3" d="M177,132.47h-7.58a1.23,1.23,0,0,1,0-2.46H177a1.23,1.23,0,0,1,0,2.46Z" transform="translate(-14.18 -77.85)"/><path class="cls-3" d="M174.33,127.34l.14,7.93a1.23,1.23,0,0,1-2.46,0l-.14-7.93a1.23,1.23,0,0,1,2.46,0Z" transform="translate(-14.18 -77.85)"/><path class="cls-3" d="M263,303.37h-7.58a1.23,1.23,0,0,1,0-2.46H263a1.23,1.23,0,0,1,0,2.46Z" transform="translate(-14.18 -77.85)"/><path class="cls-3" d="M260.41,298.25l.14,7.93a1.23,1.23,0,0,1-2.46,0l-.14-7.93a1.23,1.23,0,0,1,2.46,0Z" transform="translate(-14.18 -77.85)"/><path class="cls-3" d="M311.18,191.58h-6.69a1.23,1.23,0,0,1,0-2.46h6.69a1.23,1.23,0,0,1,0,2.46Z" transform="translate(-14.18 -77.85)"/><path class="cls-3" d="M309,186.92l.12,7a1.23,1.23,0,0,1-2.46,0l-.12-7a1.23,1.23,0,0,1,2.46,0Z" transform="translate(-14.18 -77.85)"/><path class="cls-3" d="M71.06,83.71H64.38a1.23,1.23,0,0,1,0-2.46h6.69a1.23,1.23,0,0,1,0,2.46Z" transform="translate(-14.18 -77.85)"/><path class="cls-3" d="M68.9,79,69,86a1.23,1.23,0,0,1-2.46,0l-.12-7a1.23,1.23,0,0,1,2.46,0Z" transform="translate(-14.18 -77.85)"/><path class="cls-3" d="M15.37,237.7h6.69a1.23,1.23,0,0,1,0,2.46H15.37a1.23,1.23,0,0,1,0-2.46Z" transform="translate(-14.18 -77.85)"/><path class="cls-3" d="M20,235.49l-.12,7a1.23,1.23,0,0,1-2.46,0l.12-7a1.23,1.23,0,0,1,2.46,0Z" transform="translate(-14.18 -77.85)"/><path class="cls-4" d="M69.82,295.67a3.61,3.61,0,0,0,4.9.57A.9.9,0,0,0,75,296a.94.94,0,0,0,.23-.31,4.07,4.07,0,0,0-.25-5.06,3.17,3.17,0,0,0-4.74-.31A3.82,3.82,0,0,0,69.82,295.67Zm1.69-3.92c1.61-1.25,3.71,1.25,2.27,2.85a2,2,0,0,1-2.78-.44A1.73,1.73,0,0,1,71.51,291.75Z" transform="translate(-14.18 -77.85)"/><path class="cls-4" d="M199.27,243.15h2.07l0-2.17a1.21,1.21,0,0,1,2.42,0l0,2.17h2.09a1.21,1.21,0,0,1,0,2.42h-2l0,2.29a1.21,1.21,0,0,1-2.42,0l0-2.29h-2.11A1.21,1.21,0,0,1,199.27,243.15Z" transform="translate(-14.18 -77.85)"/></g></g></g></svg>