<svg xmlns="http://www.w3.org/2000/svg" xmlns:xlink="http://www.w3.org/1999/xlink" viewBox="0 0 610.51 113.46"><defs><style>.cls-1{fill:none;}.cls-2{clip-path:url(#clip-path);}.cls-3{fill:url(#linear-gradient);}.cls-4{fill:#fff;}</style><clipPath id="clip-path" transform="translate(-115.21 -52.87)"><rect class="cls-1" width="840.52" height="194"/></clipPath><linearGradient id="linear-gradient" x1="-6541.35" y1="166.4" x2="-4734.35" y2="166.4" gradientTransform="translate(2210.07 -351.48) scale(0.34 2.76)" gradientUnits="userSpaceOnUse"><stop offset="0" stop-color="#ffcf84" stop-opacity="0"/><stop offset="0.37" stop-color="#ffcf84"/><stop offset="0.39" stop-color="#fbc682"/><stop offset="0.43" stop-color="#efac7b"/><stop offset="0.47" stop-color="#db8370"/><stop offset="0.49" stop-color="#d4746c"/><stop offset="0.67" stop-color="#188eda"/><stop offset="1" stop-color="#188eda" stop-opacity="0"/></linearGradient></defs><title>3ptext-v2</title><g id="Layer_2" data-name="Layer 2"><g id="Layer_4" data-name="Layer 4"><g class="cls-2"><rect class="cls-3" y="107.17" width="610.51" height="2.81"/><path class="cls-4" d="M705.39,58.8a6,6,0,0,1,.46-2.37A5.67,5.67,0,0,1,709,53.32a6.34,6.34,0,0,1,4.68,0,5.67,5.67,0,0,1,3.14,3.11,6.34,6.34,0,0,1,0,4.74,5.67,5.67,0,0,1-3.14,3.11,6.34,6.34,0,0,1-4.68,0,5.67,5.67,0,0,1-3.14-3.11A6,6,0,0,1,705.39,58.8Zm1.08,0a5.47,5.47,0,0,0,.35,1.95,4.58,4.58,0,0,0,2.52,2.65,5.3,5.3,0,0,0,4,0,4.58,4.58,0,0,0,2.52-2.65,5.68,5.68,0,0,0,0-3.9,4.58,4.58,0,0,0-2.52-2.65,5.3,5.3,0,0,0-4,0,4.58,4.58,0,0,0-2.52,2.65A5.47,5.47,0,0,0,706.47,58.8Zm8,3.36h-1l-1.78-2.61h-2v2.61h-1v-6.8h2.95a2.26,2.26,0,0,1,1.93,1.09,2,2,0,0,1,.23,1,2.18,2.18,0,0,1-.56,1.39,5.16,5.16,0,0,1-.79.56Zm-4.7-5.83v2.19h1.64a1.75,1.75,0,0,0,1-.23.92.92,0,0,0,.5-.88,1,1,0,0,0-.37-.84,1,1,0,0,0-.78-.25Z" transform="translate(-115.21 -52.87)"/><path class="cls-4" d="M167.14,54.29H131.57a7.91,7.91,0,0,0-7.91,7.91V98.38h8.91V82.48a2.78,2.78,0,0,1,2.78-2.78h27.88A2.78,2.78,0,0,1,166,82.48v15.9h9.05V62.2A7.91,7.91,0,0,0,167.14,54.29Zm-4,17.34H135.34a2.78,2.78,0,0,1-2.78-2.78V65.09a2.68,2.68,0,0,1,2.68-2.68h28.1A2.68,2.68,0,0,1,166,65.09v3.69A2.85,2.85,0,0,1,163.18,71.63Z" transform="translate(-115.21 -52.87)"/><path class="cls-4" d="M192.24,85.3V66.37a4,4,0,0,1,4-4h35.61V54.29H190.09a8.23,8.23,0,0,0-8.23,8.23V90.15a8.23,8.23,0,0,0,8.23,8.23h43.17V89.26H196.2A4,4,0,0,1,192.24,85.3Z" transform="translate(-115.21 -52.87)"/><path class="cls-4" d="M599.67,85.2V66.47a4.06,4.06,0,0,1,4.06-4.06h35.52V54.29H597.52a8.23,8.23,0,0,0-8.23,8.23V90.15a8.23,8.23,0,0,0,8.23,8.23h43.17V89.26h-37A4.06,4.06,0,0,1,599.67,85.2Z" transform="translate(-115.21 -52.87)"/><path class="cls-4" d="M240.08,62.62V98.38h10.37v-32a4,4,0,0,1,4-4h37V54.29H248.4A8.33,8.33,0,0,0,240.08,62.62Z" transform="translate(-115.21 -52.87)"/><path class="cls-4" d="M516.05,54.29H472.89V98.38h10.37V84a4.06,4.06,0,0,1,4.06-4.06h28.74a8.23,8.23,0,0,0,8.23-8.23V62.52A8.23,8.23,0,0,0,516.05,54.29Zm-4.81,17.32h-25a3,3,0,0,1-3-3v-3a3.17,3.17,0,0,1,3.17-3.17h24.81a4.06,4.06,0,0,1,4.06,4.06v1.09A4.06,4.06,0,0,1,511.24,71.61Z" transform="translate(-115.21 -52.87)"/><path class="cls-4" d="M399.64,71.73H370.19a4.06,4.06,0,0,1-4.06-4.06v-1.2a4.06,4.06,0,0,1,4.06-4.06h34.63V54.29H364.71a8.23,8.23,0,0,0-8.23,8.23v10a8.23,8.23,0,0,0,8.23,8.23h30.22a4,4,0,0,1,4,4v1.44a4,4,0,0,1-4,4H357.77v8.3h41.87a8.23,8.23,0,0,0,8.23-8.23V80A8.23,8.23,0,0,0,399.64,71.73Z" transform="translate(-115.21 -52.87)"/><path class="cls-4" d="M457.85,71.73H428.39a4.06,4.06,0,0,1-4.06-4.06v-1.2a4.06,4.06,0,0,1,4.06-4.06H463V54.29H422.91a8.23,8.23,0,0,0-8.23,8.23v10a8.23,8.23,0,0,0,8.23,8.23h30.22a4,4,0,0,1,4,4v1.44a4,4,0,0,1-4,4H416v8.3h41.87a8.23,8.23,0,0,0,8.23-8.23V80A8.23,8.23,0,0,0,457.85,71.73Z" transform="translate(-115.21 -52.87)"/><path class="cls-4" d="M533.81,54.29v8.12h35.64a4.06,4.06,0,0,1,4.06,4.06v1.08a4.06,4.06,0,0,1-4.06,4.06H539.32a8.23,8.23,0,0,0-8.23,8.23V90.15a8.23,8.23,0,0,0,8.23,8.23h43.17V62.52a8.23,8.23,0,0,0-8.23-8.23ZM573.5,82.37v4.54a3.17,3.17,0,0,1-3.17,3.17H544.1A4.06,4.06,0,0,1,540,86V83.26a4.06,4.06,0,0,1,4.06-4.06h26.24A3.17,3.17,0,0,1,573.5,82.37Z" transform="translate(-115.21 -52.87)"/><path class="cls-4" d="M698.92,90.11H660.81a3,3,0,0,1-3-3v-8H694.9a4,4,0,0,0,4-4V62.52a8.23,8.23,0,0,0-8.23-8.23H655.7a8.23,8.23,0,0,0-8.23,8.23V90.15a8.23,8.23,0,0,0,8.23,8.23h43.21ZM657.85,71.65V66.47a4.06,4.06,0,0,1,4.06-4.06h23.91a4.06,4.06,0,0,1,4.06,4.06v2a3.17,3.17,0,0,1-3.17,3.17Z" transform="translate(-115.21 -52.87)"/><path class="cls-4" d="M341.44,54.29H306.5a8.23,8.23,0,0,0-8.23,8.23V90.15a8.23,8.23,0,0,0,8.23,8.23h34.94a8.23,8.23,0,0,0,8.23-8.23V62.52A8.23,8.23,0,0,0,341.44,54.29Zm-2.21,12.19V86a4.06,4.06,0,0,1-4.06,4.06h-22.4A4.06,4.06,0,0,1,308.71,86V66.48a4.06,4.06,0,0,1,4.06-4.06h22.4A4.06,4.06,0,0,1,339.23,66.48Z" transform="translate(-115.21 -52.87)"/><path class="cls-4" d="M185.28,166H183V151.52L176.9,166h-1.59l-6.16-14.48V166h-2V149.42h3.48l5.67,13.26,5.54-13.26h3.44Z" transform="translate(-115.21 -52.87)"/><path class="cls-4" d="M207.49,164.18V166H195.35V149.42h11.88v1.82H197.7v5.27h7.56v1.69H197.7v6Z" transform="translate(-115.21 -52.87)"/><path class="cls-4" d="M228.3,164.18V166H216.16V149.42H228v1.82h-9.53v5.27h7.56v1.69h-7.56v6Z" transform="translate(-115.21 -52.87)"/><path class="cls-4" d="M242.64,166h-2.35V151.24h-5.38v-1.82H248v1.82h-5.39Z" transform="translate(-115.21 -52.87)"/><path class="cls-4" d="M274.11,166h-2.35V151.24h-5.38v-1.82H279.5v1.82h-5.39Z" transform="translate(-115.21 -52.87)"/><path class="cls-4" d="M300.9,166h-2.35V158.1h-8.71V166h-2.35V149.42h2.35v6.86h8.71v-6.86h2.35Z" transform="translate(-115.21 -52.87)"/><path class="cls-4" d="M323.12,164.18V166H311V149.42h11.88v1.82h-9.53v5.27h7.56v1.69h-7.56v6Z" transform="translate(-115.21 -52.87)"/><path class="cls-4" d="M344.2,166V149.42h7.43a6.09,6.09,0,0,1,4.16,1.21,3.68,3.68,0,0,1,1.35,2.82q0,2.82-3.33,3.74a5.19,5.19,0,0,1,2.94,1.6,4,4,0,0,1,1,2.61,4.19,4.19,0,0,1-1.49,3.28,6.8,6.8,0,0,1-4.6,1.32Zm2.27-9.47h4.08q2.54,0,3.4-.86a2.76,2.76,0,0,0,.85-2,2.22,2.22,0,0,0-.91-1.85,4.44,4.44,0,0,0-2.73-.7h-4.69Zm0,7.65h5a4.51,4.51,0,0,0,2.85-.79,2.49,2.49,0,0,0,1-2.05,3.14,3.14,0,0,0-.45-1.65,3,3,0,0,0-1.28-1.17,5.72,5.72,0,0,0-2.46-.41h-4.69Z" transform="translate(-115.21 -52.87)"/><path class="cls-4" d="M380.12,166h-2.47l-3.46-7.18h-5.38V166h-2.2V149.42H374a6.08,6.08,0,0,1,4.46,1.45,4.42,4.42,0,0,1,1.45,3.18,4.35,4.35,0,0,1-3.49,4.27Zm-11.31-8.87h4.91a4.08,4.08,0,0,0,2.9-.9,2.94,2.94,0,0,0,1-2.22,2.37,2.37,0,0,0-1-2,4.25,4.25,0,0,0-2.55-.73h-5.2Z" transform="translate(-115.21 -52.87)"/><path class="cls-4" d="M401.89,166h-2.4l-1.89-4.85h-7L389,166h-2l6.1-16.58h2.66Zm-4.79-6.4-2.91-8-2.9,8Z" transform="translate(-115.21 -52.87)"/><path class="cls-4" d="M421.14,149.42,414.82,166h-2.27l-6.32-16.58h2.46l5.23,13.67,5.18-13.67Z" transform="translate(-115.21 -52.87)"/><path class="cls-4" d="M441.12,164.18V166H429V149.42h11.88v1.82h-9.53v5.27h7.56v1.69h-7.56v6Z" transform="translate(-115.21 -52.87)"/><path class="cls-4" d="M476,166h-2.28L464,151.55l0,1.09q0,.62,0,1V166h-1.9V149.42h2.94l9.08,13.51,0-1.15q0-.68,0-1.2V149.42H476Z" transform="translate(-115.21 -52.87)"/><path class="cls-4" d="M498.24,164.18V166H486.1V149.42H498v1.82h-9.53v5.27H496v1.69h-7.56v6Z" transform="translate(-115.21 -52.87)"/><path class="cls-4" d="M527,149.42,522.52,166h-2.36l-4.1-12.86L512.27,166h-2.42l-4.77-16.58h2.44l3.76,13.43,4-13.43h1.91l4.29,13.43,3.5-13.43Z" transform="translate(-115.21 -52.87)"/><path class="cls-4" d="M567.87,149.42,563.35,166H561l-4.1-12.86L553.09,166h-2.42l-4.77-16.58h2.44l3.76,13.43,4-13.43H558l4.29,13.43,3.5-13.43Z" transform="translate(-115.21 -52.87)"/><path class="cls-4" d="M582.24,166.34a6.86,6.86,0,0,1-5.64-2.49,9.34,9.34,0,0,1-2-6.09,9.19,9.19,0,0,1,2.12-6.22,7.65,7.65,0,0,1,11.2,0,8.92,8.92,0,0,1,2.11,6.08,9.7,9.7,0,0,1-2,6.14A6.83,6.83,0,0,1,582.24,166.34Zm.05-1.69a4.44,4.44,0,0,0,3.85-2,8.7,8.7,0,0,0,1.39-5.11,7.78,7.78,0,0,0-1.44-5,4.66,4.66,0,0,0-3.82-1.79,4.5,4.5,0,0,0-3.82,1.93,8.35,8.35,0,0,0-1.42,5.06,8.08,8.08,0,0,0,1.43,5A4.53,4.53,0,0,0,582.29,164.65Z" transform="translate(-115.21 -52.87)"/><path class="cls-4" d="M612.42,166H610l-3.46-7.18h-5.38V166h-2.2V149.42h7.4a6.08,6.08,0,0,1,4.46,1.45,4.42,4.42,0,0,1,1.45,3.18,4.35,4.35,0,0,1-3.49,4.27Zm-11.31-8.87H606a4.08,4.08,0,0,0,2.9-.9,2.94,2.94,0,0,0,1-2.22,2.37,2.37,0,0,0-1-2,4.25,4.25,0,0,0-2.55-.73h-5.2Z" transform="translate(-115.21 -52.87)"/><path class="cls-4" d="M632.63,164.18V166H621.55V149.42H624v14.76Z" transform="translate(-115.21 -52.87)"/><path class="cls-4" d="M640.72,166V149.42H647a8,8,0,0,1,6.19,2.39,8.3,8.3,0,0,1,2.21,5.85,8.55,8.55,0,0,1-2.16,5.92,7,7,0,0,1-5.47,2.41Zm2.35-1.76h3.81a5.69,5.69,0,0,0,4.59-1.85,7.27,7.27,0,0,0,1.57-4.87,7.09,7.09,0,0,0-1.49-4.41,5.5,5.5,0,0,0-4.67-2h-3.81Z" transform="translate(-115.21 -52.87)"/></g></g></g></svg>